<svg xmlns="http://www.w3.org/2000/svg" viewBox="0 0 400 400" width="400" height="400">
  <defs>
    <radialGradient id="bgGrad" cx="50%" cy="50%" r="50%">
      <stop offset="0%" stop-color="#f8f3ee"></stop>
      <stop offset="100%" stop-color="#fdf8f4"></stop>
    </radialGradient>
    <linearGradient id="goldGrad" x1="0%" y1="0%" x2="100%" y2="100%">
      <stop offset="0%" stop-color="#e0a09a"></stop>
      <stop offset="50%" stop-color="#c47b72"></stop>
      <stop offset="100%" stop-color="#8a4040"></stop>
    </linearGradient>
    <linearGradient id="goldGrad2" x1="0%" y1="0%" x2="100%" y2="0%">
      <stop offset="0%" stop-color="#c47b72"></stop>
      <stop offset="100%" stop-color="#e0a09a"></stop>
    </linearGradient>
  </defs>

  
  <circle cx="200" cy="200" r="190" fill="url(#bgGrad)"></circle>
  <circle cx="200" cy="200" r="185" fill="none" stroke="#c47b72" stroke-width="0.5" opacity="0.4"></circle>
  <circle cx="200" cy="200" r="170" fill="none" stroke="#c47b72" stroke-width="0.5" opacity="0.2"></circle>

  
  <polygon points="200,30 208,42 200,54 192,42" fill="url(#goldGrad)" opacity="0.9"></polygon>
  <polygon points="200,346 208,358 200,370 192,358" fill="url(#goldGrad)" opacity="0.9"></polygon>
  <polygon points="30,200 42,208 54,200 42,192" fill="url(#goldGrad)" opacity="0.9"></polygon>
  <polygon points="346,200 358,208 370,200 358,192" fill="url(#goldGrad)" opacity="0.9"></polygon>

  
  <line x1="60" y1="148" x2="145" y2="148" stroke="url(#goldGrad2)" stroke-width="0.8" opacity="0.5"></line>
  <line x1="255" y1="148" x2="340" y2="148" stroke="url(#goldGrad2)" stroke-width="0.8" opacity="0.5"></line>
  <line x1="60" y1="258" x2="145" y2="258" stroke="url(#goldGrad2)" stroke-width="0.8" opacity="0.5"></line>
  <line x1="255" y1="258" x2="340" y2="258" stroke="url(#goldGrad2)" stroke-width="0.8" opacity="0.5"></line>

  
  <polygon points="152,148 158,154 152,160 146,154" fill="#c47b72" opacity="0.6"></polygon>
  <polygon points="248,148 254,154 248,160 242,154" fill="#c47b72" opacity="0.6"></polygon>
  <polygon points="152,258 158,264 152,270 146,264" fill="#c47b72" opacity="0.6"></polygon>
  <polygon points="248,258 254,264 248,270 242,264" fill="#c47b72" opacity="0.6"></polygon>

  
  <text x="200" y="218" font-family="Georgia, &#39;Times New Roman&#39;, serif" font-size="108" font-weight="400" fill="url(#goldGrad)" text-anchor="middle" dominant-baseline="middle" letter-spacing="-4">MJ</text>

  
  <line x1="120" y1="248" x2="280" y2="248" stroke="#c47b72" stroke-width="0.6" opacity="0.6"></line>
  <polygon points="200,244 204,248 200,252 196,248" fill="#c47b72" opacity="0.8"></polygon>

  
  <text x="200" y="278" font-family="Georgia, serif" font-size="18" font-weight="400" fill="#c47b72" text-anchor="middle" letter-spacing="10" opacity="0.85">BEAUTY</text>

  
  <circle cx="200" cy="130" r="2.5" fill="#c47b72" opacity="0.5"></circle>
  <circle cx="188" cy="134" r="1.5" fill="#c47b72" opacity="0.3"></circle>
  <circle cx="212" cy="134" r="1.5" fill="#c47b72" opacity="0.3"></circle>
</svg>